<svg width="352" height="234" viewBox="0 0 352 234" fill="none" xmlns="http://www.w3.org/2000/svg">
<path d="M28.2454 94.738C24.918 93.2494 21.8016 91.3538 18.9725 89.0978H18.8753L19.2768 112.21C24.58 114.769 30.0685 116.951 35.6987 118.74V118.934L26.1279 127.52C19.8024 123.912 13.1995 120.779 6.37761 118.151C7.21511 116.517 7.63062 114.711 7.58852 112.887L7.49141 99.6262C7.49141 95.3334 6.78557 91.7237 5.77539 90.1632C9.40167 88.1202 18.4739 81.8784 21.8994 78.7575C26.5059 81.8502 31.3558 84.5889 36.4045 86.9483L28.2454 94.738Z" fill="white"/>
<path d="M65.4212 127.79C59.7156 124.304 53.4501 121.763 46.8818 120.269C47.5877 117.637 48.3971 114.516 48.3971 107.497V93.2716C48.4769 91.6534 48.1293 90.0422 47.3869 88.5902C54.2738 85.8802 60.9148 82.6185 67.2408 78.8389C71.8127 81.7205 76.7152 84.078 81.8495 85.8641C81.1437 87.1175 80.6386 89.9564 80.7358 92.3942L81.2408 110.919C81.1597 113.075 81.7193 115.209 82.8533 117.067C77.8153 119.016 69.1511 124.669 65.4212 127.79ZM69.6562 91.1283C66.8249 89.2713 63.7832 87.7343 60.5905 86.5472L59.9818 86.9357L59.5803 113.752C62.8532 115.039 66.0485 116.503 69.1511 118.139H69.4555C69.6562 113.263 69.6562 107.021 69.6562 102.246C69.6562 98.636 69.7533 94.832 69.6562 91.1283Z" fill="white"/>
<path d="M133.129 90.4452L132.831 110.631C132.728 114.335 133.531 115.312 134.126 116.089C129.393 118.233 118.507 123.892 113.269 127.37C109.539 125.126 101.885 121.911 98.2585 120.639V120.251C99.4629 119.668 100.777 116.641 100.777 113.526C100.777 105.818 100.777 98.705 100.577 90.9967L94.7488 87.6815V87.4872C97.4685 84.9805 100.998 81.1514 102.409 78.8076C105.33 80.7629 112.582 85.5382 112.582 85.5382C112.582 91.5858 112.686 100.065 112.686 105.335C112.66 108.78 111.291 112.088 108.852 114.598L108.956 114.792C113.344 115.741 117.603 117.18 121.648 119.079H121.855L121.752 89.0477C120.644 88.2706 120.036 87.5875 118.728 86.8041L126.084 78.8076L134.949 84.8551C134.236 85.5633 133.129 87.5186 133.129 90.4452Z" fill="white"/>
<path d="M162.347 107.805C162.347 108.97 162.249 111.508 162.249 112.874C167.422 115.066 172.739 116.923 178.166 118.433V118.627C175.751 120.965 171.114 125.452 169.502 127.501C163.193 123.907 156.597 120.808 149.778 118.233C150.885 115.507 150.982 111.214 150.982 101.563C150.982 94.3432 150.38 90.4452 149.37 88.0074C154.712 86.2527 163.175 82.0601 169.444 78.1621C171.859 82.2544 177.098 90.6395 180.452 95.0263C174.443 99.0246 165.371 105.266 162.347 107.805ZM162.554 87.0298L162.249 87.2303L162.347 103.9L170.117 98.7363C167.792 94.9636 164.367 89.3736 162.554 87.0298Z" fill="white"/>
<path d="M222.705 127.207C220.283 124.963 216.877 122.525 213.231 119.793C215.549 116.967 216.151 113.652 216.151 105.95L216.255 91.1283C214.442 90.345 209.1 88.7845 206.684 88.7845V116.359C208.072 117.379 209.518 118.323 211.016 119.185V119.285L201.646 126.925C198.458 124.364 195.091 122.019 191.57 119.906C194.161 118.245 195.197 115.519 195.197 110.155V91.1283C193.279 89.6723 191.221 88.3984 189.052 87.3243C192.477 84.1094 194.595 82.2544 197.612 78.7449C200.417 81.3169 203.377 83.7255 206.477 85.9581C208.899 84.3037 212.221 81.0825 214.138 79.2338C217.868 81.1828 225.923 84.6922 229.556 86.1273C228.649 87.4935 227.84 90.3199 227.84 95.2958V115.676C229.653 116.929 231.265 118.114 233.078 119.285V119.405C230.262 121.354 226.027 124.575 222.705 127.207Z" fill="white"/>
<path d="M129.9 173.687C124.655 177.297 114.586 184.805 110.247 188.803C105.371 185.918 99.9673 183.965 94.3303 183.05L102.794 173.299C108.233 174.759 112.87 176.432 117.804 179.346L119.015 178.469C119.015 170.767 118.108 164.813 114.683 162.087L101.084 169.495C98.4617 167.157 96.3442 162.864 96.3442 157.406C96.3442 155.845 96.6486 154.479 96.7522 152.919C103.195 148.92 109.949 143.556 115.188 139.075C119.566 141.026 124.218 142.339 128.994 142.973L129.091 143.362L120.025 152.336C116.697 151.747 110.959 149.309 108.738 147.949L107.029 149.202C107.029 153.495 108.032 158.465 109.748 160.708L123.146 153.188C126.973 156.528 130.211 160.621 130.211 169.595C130.207 170.964 130.104 172.332 129.9 173.687Z" fill="white"/>
<path d="M199.92 151.653L199.499 171.838C199.369 173.708 199.901 175.565 201.008 177.103C193.884 180.56 186.966 184.401 180.286 188.609C176.964 186.854 172.632 184.711 169.207 183.344C165.677 185.224 162.084 187.343 159.934 188.609C155.073 186.078 150.061 183.83 144.924 181.878V181.489C146.335 180.512 147.514 178.356 147.514 174.959C147.514 174.959 147.514 156.428 147.417 152.142L141.589 148.92V148.714C143.609 146.833 148.064 141.306 149.146 139.94C152.459 142.429 155.919 144.73 159.506 146.833C159.403 152.198 159.61 161.874 159.61 167.119C159.61 171.607 157.091 174.138 155.479 175.893L155.576 176.087C160.084 177.163 164.472 178.666 168.676 180.574L168.475 150.249C167.535 149.419 166.523 148.668 165.451 148.005L172.807 140.009L181.568 146.056C180.869 146.739 179.859 149.077 179.859 151.615L179.658 171.801C179.658 173.167 179.755 176.282 179.859 177.648C182.695 178.445 185.486 179.389 188.219 180.474H188.426L188.627 150.249C187.616 149.566 186.807 148.789 185.499 148.005L192.855 140.009L201.72 146.056C201.027 146.777 200.024 148.826 199.92 151.653Z" fill="white"/>
<path d="M248.285 188.508L239.116 181.301C236.582 183.693 234.203 186.234 231.993 188.909C227.661 186.403 221.82 183.445 216.173 180.518C217.367 177.937 218.027 175.154 218.116 172.327L218.317 159.944C218.42 157.117 218.012 154.304 217.307 152.731C221.639 149.804 230.808 142.077 232.725 139.959C238.936 141.883 245.261 143.446 251.666 144.64C250.37 147.466 250.157 150.28 250.053 153.903L249.652 175.254L257.008 179.741V179.935L248.285 188.508ZM229.345 149.115H229.04L229.345 175.542L237.905 178.951H238.209C238.514 176.031 238.812 159.938 239.012 151.264C235.714 150.914 232.47 150.193 229.345 149.115Z" fill="white"/>
<path d="M291.108 188.414C288.367 187.049 285.499 185.939 282.541 185.099C282.541 187.142 282.644 192.995 282.644 192.995C282.668 194.844 283.078 196.669 283.849 198.36C277.807 201.086 272.97 203.135 267.932 206.162L267.731 205.673C270.25 203.041 271.358 200.115 271.455 193.766C271.455 193.766 271.759 154.567 271.759 152.223C269.573 150.581 267.209 149.175 264.707 148.03L274.382 139.645L283.752 146.207L290.875 140.567C294.909 142.91 302.265 146.42 305.49 147.78C304.614 150.681 304.246 153.704 304.402 156.723L304.706 170.472C304.81 173.399 305.211 176.419 306.52 178.174C301.585 180.512 294.734 184.999 291.108 188.414ZM293.219 153.019C290.436 151.103 287.457 149.469 284.328 148.143L283.525 148.632C283.318 150.869 283.221 160.915 283.117 165.108L282.819 175.248C286.414 176.075 289.893 177.319 293.18 178.951H293.284C293.484 176.031 293.588 166.179 293.588 165.208C293.627 158.377 293.394 155.939 293.219 153.019Z" fill="white"/>
<path d="M293.076 51.1621V102.162C295.057 66.4488 300.291 53.6062 321.377 51.1621H293.076Z" fill="white"/>
<path d="M293.076 51.1621V102.162C291.095 66.4488 285.861 53.6062 264.775 51.1621H293.076Z" fill="white"/>
<path d="M293.076 51.1622V0.162174C295.057 35.8755 300.291 48.7181 321.377 51.1622H293.076Z" fill="white"/>
<path d="M293.076 51.1622V0.162174C291.095 35.8755 285.861 48.7181 264.775 51.1622H293.076Z" fill="white"/>
<path d="M32.7754 193.516V233.162C34.3153 205.4 38.384 195.416 54.7754 193.516H32.7754Z" fill="white"/>
<path d="M32.7754 193.516V233.162C31.2355 205.4 27.1668 195.416 10.7754 193.516H32.7754Z" fill="white"/>
<path d="M32.7754 193.516V153.871C34.3153 181.633 38.384 191.616 54.7754 193.516H32.7754Z" fill="white"/>
<path d="M32.7754 193.516V153.871C31.2355 181.633 27.1668 191.616 10.7754 193.516H32.7754Z" fill="white"/>
<path d="M334.466 23.9838V47.9676C335.398 31.1726 337.859 25.1331 347.775 23.9838H334.466Z" fill="white"/>
<path d="M334.466 23.9838V47.9676C333.535 31.1726 331.074 25.1331 321.157 23.9838H334.466Z" fill="white"/>
<path d="M334.466 23.9838V-7.62939e-06C335.398 16.7949 337.859 22.8344 347.775 23.9838H334.466Z" fill="white"/>
<path d="M334.466 23.9838V-7.62939e-06C333.535 16.7949 331.074 22.8344 321.157 23.9838H334.466Z" fill="white"/>
<path fill-rule="evenodd" clip-rule="evenodd" d="M341.083 121.2C347.829 110.367 350.417 99.6325 348.343 89.5061C346.269 79.3798 339.669 70.5275 329.208 63.2187C318.735 55.9015 304.486 50.2059 287.391 46.4287C253.205 38.8753 208.014 39.0763 159.958 48.9185C132.039 54.6367 106.287 62.9673 84.0269 72.9421C83.4222 72.4453 82.7253 72.0277 81.9437 71.6875C104.646 61.3905 130.988 52.8104 159.557 46.9592C256.086 27.189 341.486 46.0583 350.302 89.1049C354.279 108.521 341.995 129.54 318.452 148.58C318.069 148.051 317.613 147.562 317.087 147.112C327.504 138.703 335.632 129.953 341.083 121.2ZM211.991 196.019C205.177 197.8 198.2 199.427 191.083 200.885C143.027 210.727 97.8359 210.928 63.6506 203.375C46.5553 199.598 32.3063 193.902 21.8332 186.585C11.3718 179.276 4.77214 170.424 2.69816 160.298C0.934778 151.688 2.54171 142.639 7.20878 133.463C6.55564 133.22 5.95512 132.928 5.41108 132.586C0.598136 142.063 -1.13319 151.559 0.738828 160.699C9.55519 203.745 94.9547 222.615 191.484 202.845C198.887 201.328 206.14 199.629 213.219 197.764C212.724 197.229 212.313 196.648 211.991 196.019Z" fill="white"/>
</svg>
