<svg width="189" height="118" viewBox="0 0 189 118" fill="none" xmlns="http://www.w3.org/2000/svg">
<path d="M25.985 41.223C24.1549 40.4027 22.4409 39.3582 20.8849 38.1151H20.8314L21.0522 50.8505C23.969 52.2605 26.9877 53.4631 30.0843 54.4487V54.5557L24.8203 59.2866C21.3413 57.2983 17.7097 55.5724 13.9577 54.1241C14.4183 53.2236 14.6468 52.2283 14.6237 51.2234L14.5703 43.9165C14.5703 41.5511 14.1821 39.562 13.6265 38.7022C15.6209 37.5764 20.6106 34.1371 22.4947 32.4174C25.0283 34.1216 27.6957 35.6306 30.4725 36.9307L25.985 41.223Z" fill="white"/>
<path d="M46.4316 59.4351C43.2935 57.5146 39.8475 56.1142 36.235 55.2912C36.6232 53.8409 37.0684 52.1212 37.0684 48.2537V40.4149C37.1123 39.5233 36.9211 38.6355 36.5128 37.8354C40.3006 36.3422 43.9531 34.5449 47.4324 32.4622C49.947 34.05 52.6433 35.3491 55.4672 36.3333C55.079 37.0239 54.8012 38.5882 54.8547 39.9315L55.1324 50.1391C55.0878 51.3273 55.3956 52.503 56.0193 53.5267C53.2484 54.6006 48.4831 57.7154 46.4316 59.4351ZM48.7609 39.2339C47.2037 38.2107 45.5307 37.3638 43.7748 36.7097L43.44 36.9238L43.2192 51.6999C45.0192 52.4092 46.7767 53.2162 48.4831 54.1172H48.6505C48.7609 51.4306 48.7609 47.9912 48.7609 45.3599C48.7609 43.3709 48.8143 41.2748 48.7609 39.2339Z" fill="white"/>
<path d="M83.6711 38.8576L83.5072 49.9803C83.4502 52.0211 83.8919 52.5598 84.2195 52.988C81.616 54.169 75.6291 57.2872 72.7478 59.2037C70.6964 57.9675 66.4867 56.196 64.4922 55.495V55.2809C65.1547 54.9598 65.8777 53.2919 65.8777 51.5756C65.8777 47.3282 65.8777 43.4089 65.7673 39.1614L62.5619 37.3347V37.2277C64.0577 35.8464 65.9987 33.7365 66.7752 32.445C68.3814 33.5224 72.3703 36.1537 72.3703 36.1537C72.3703 39.4861 72.4273 44.1582 72.4273 47.0623C72.413 48.9604 71.6599 50.7833 70.3189 52.1661L70.3759 52.2732C72.7891 52.7961 75.1316 53.5887 77.3565 54.6352H77.4704L77.4135 38.0875C76.8044 37.6593 76.4696 37.2829 75.7502 36.8513L79.7961 32.445L84.6718 35.7773C84.2801 36.1675 83.6711 37.2449 83.6711 38.8576Z" fill="white"/>
<path d="M99.7406 48.4229C99.7406 49.0652 99.6871 50.4637 99.6871 51.2165C102.532 52.4241 105.457 53.4474 108.441 54.2795V54.3865C107.113 55.6746 104.563 58.1471 103.676 59.2762C100.206 57.296 96.5785 55.5881 92.8276 54.169C93.4367 52.6669 93.4901 50.3014 93.4901 44.9835C93.4901 41.0054 93.1589 38.8576 92.6033 37.5143C95.5415 36.5474 100.196 34.2372 103.644 32.0893C104.972 34.3443 107.854 38.9646 109.699 41.3818C106.393 43.585 101.404 47.0244 99.7406 48.4229ZM99.8545 36.9756L99.6871 37.0861L99.7406 46.2716L104.014 43.4261C102.736 41.3473 100.852 38.2671 99.8545 36.9756Z" fill="white"/>
<path d="M132.938 59.1139C131.606 57.8777 129.732 56.5344 127.727 55.0288C129.002 53.4714 129.333 51.6447 129.333 47.4007L129.39 39.234C128.393 38.8023 125.455 37.9425 124.126 37.9425V53.1365C124.89 53.6988 125.685 54.2188 126.509 54.6939V54.7491L121.356 58.9585C119.602 57.5477 117.75 56.2554 115.814 55.091C117.238 54.1759 117.808 52.6738 117.808 49.7178V39.234C116.754 38.4316 115.622 37.7297 114.428 37.1379C116.312 35.3664 117.477 34.3442 119.137 32.4105C120.679 33.8276 122.308 35.1548 124.012 36.3851C125.344 35.4734 127.171 33.6985 128.226 32.6798C130.277 33.7537 134.708 35.6875 136.706 36.4783C136.207 37.2311 135.762 38.7885 135.762 41.5303V52.7601C136.759 53.4507 137.646 54.1034 138.643 54.7491V54.8147C137.094 55.8887 134.765 57.6636 132.938 59.1139Z" fill="white"/>
<path d="M69.7951 84.7255C66.9103 86.7146 61.3721 90.8515 58.9859 93.0546C56.3038 91.4648 53.332 90.3886 50.2317 89.8846L54.8866 84.5114C57.8783 85.316 60.4283 86.238 63.1422 87.8438L63.8082 87.3603C63.8082 83.1164 63.3096 79.8358 61.4256 78.3337L53.9464 82.4154C52.5039 81.1273 51.3393 78.7619 51.3393 75.7542C51.3393 74.8943 51.5067 74.1415 51.5637 73.2817C55.1074 71.0786 58.8221 68.1226 61.7034 65.6536C64.1114 66.7285 66.6701 67.4522 69.2965 67.8015L69.3499 68.0156L64.3638 72.9605C62.5332 72.6359 59.3777 71.2926 58.1561 70.5433L57.2158 71.2339C57.2158 73.5994 57.7679 76.3378 58.7117 77.574L66.0805 73.4302C68.1853 75.2707 69.9661 77.5257 69.9661 82.4706C69.9641 83.2252 69.907 83.9788 69.7951 84.7255Z" fill="white"/>
<path d="M108.306 72.5841L108.074 83.7068C108.003 84.7371 108.296 85.7602 108.904 86.6075C104.986 88.5126 101.181 90.6293 97.5074 92.9476C95.6804 91.9807 93.2977 90.7997 91.4136 90.0469C89.4726 91.0828 87.496 92.25 86.3135 92.9476C83.6403 91.553 80.8835 90.3146 78.0579 89.2388V89.0247C78.8343 88.486 79.4825 87.2982 79.4825 85.4265C79.4825 85.4265 79.4825 75.2155 79.4291 72.8535L76.2238 71.0785V70.9646C77.335 69.9286 79.7853 66.8829 80.3801 66.1301C82.2026 67.5015 84.1052 68.7698 86.0785 69.9286C86.0215 72.8846 86.1355 78.2163 86.1355 81.1066C86.1355 83.5791 84.75 84.9742 83.8632 85.941L83.9166 86.0481C86.3962 86.641 88.8095 87.4691 91.1216 88.5206L91.0112 71.8106C90.4944 71.3531 89.9379 70.9395 89.348 70.5744L93.3939 66.1681L98.2126 69.5004C97.828 69.8768 97.2724 71.1649 97.2724 72.5634L97.1619 83.6861C97.1619 84.4389 97.2154 86.1551 97.2724 86.9079C98.8325 87.3473 100.367 87.8672 101.87 88.4653H101.984L102.095 71.8106C101.539 71.4342 101.094 71.006 100.374 70.5744L104.42 66.1681L109.296 69.5004C108.915 69.8975 108.363 71.0267 108.306 72.5841Z" fill="white"/>
<path d="M134.907 92.8923L129.864 88.9212C128.47 90.239 127.162 91.639 125.946 93.1133C123.564 91.732 120.351 90.1021 117.245 88.4895C117.902 87.0671 118.265 85.5338 118.314 83.9762L118.424 77.1527C118.481 75.5953 118.257 74.0448 117.869 73.1781C120.251 71.5655 125.294 67.3077 126.349 66.1405C129.765 67.2006 133.244 68.062 136.766 68.72C136.054 70.2774 135.936 71.8279 135.879 73.8238L135.658 85.5888L139.704 88.0613V88.1684L134.907 92.8923ZM124.49 71.1856H124.322L124.49 85.7477L129.198 87.6262H129.365C129.533 86.017 129.696 77.1493 129.807 72.37C127.993 72.1773 126.208 71.7798 124.49 71.1856Z" fill="white"/>
<path d="M158.459 92.8405C156.952 92.088 155.374 91.4763 153.747 91.0138C153.747 92.1395 153.804 95.3648 153.804 95.3648C153.817 96.3833 154.043 97.3888 154.467 98.3207C151.144 99.8229 148.483 100.952 145.713 102.62L145.602 102.351C146.988 100.9 147.597 99.2876 147.65 95.7895C147.65 95.7895 147.817 74.1899 147.817 72.8984C146.615 71.9936 145.315 71.2189 143.939 70.5882L149.26 65.9678L154.413 69.5833L158.331 66.4755C160.55 67.7669 164.596 69.7007 166.369 70.4501C165.888 72.0487 165.685 73.7143 165.771 75.3778L165.938 82.954C165.995 84.5667 166.216 86.2311 166.936 87.198C164.222 88.486 160.454 90.9585 158.459 92.8405ZM159.62 73.3369C158.09 72.281 156.451 71.3808 154.73 70.6504L154.289 70.9197C154.175 72.1525 154.121 77.6879 154.064 79.9981L153.901 85.5854C155.878 86.0415 157.791 86.7267 159.599 87.6262H159.656C159.766 86.017 159.823 80.5886 159.823 80.0534C159.845 76.2894 159.717 74.9461 159.62 73.3369Z" fill="white"/>
<g filter="url(#filter0_d_462_1704)">
<path fill-rule="evenodd" clip-rule="evenodd" d="M166.951 65.946C172.09 58.8619 174.191 51.6301 172.815 44.8984C170.678 34.4481 160.365 26.19 144.333 21.7059C128.414 17.2534 107.43 16.7246 85.1925 21.2876C75.0623 23.3662 65.5859 26.3139 57.0514 29.8872C56.984 29.7605 56.9099 29.6375 56.8288 29.5184C56.5076 29.0461 56.0904 28.6523 55.5869 28.3347C64.4333 24.574 74.275 21.4861 84.7919 19.3281C129.76 10.1012 170.046 21.3694 174.774 44.4964C176.247 51.7044 174.093 59.2136 169.067 66.4155C168.423 66.2172 167.716 66.0608 166.951 65.946ZM117.011 97.1223C112.057 98.6741 106.876 100.018 101.512 101.119C79.2746 105.682 58.2905 105.153 42.3719 100.701C26.3405 96.2164 16.0268 87.9583 13.8904 77.508C12.9548 72.9312 13.6264 68.1232 15.7673 63.2876C15.0171 63.2645 14.3247 63.1798 13.6978 63.0316C11.6001 68.0032 10.9327 73.0258 11.9312 77.91C16.6591 101.037 56.9453 112.305 101.913 103.078C108.455 101.736 114.735 100.034 120.678 98.0339C119.265 97.8629 118.031 97.5598 117.011 97.1223Z" fill="#423553"/>
</g>
<path d="M160.215 29.2449V57.3469C161.305 37.6681 164.183 30.5916 175.781 29.2449H160.215Z" fill="#FCBC98"/>
<path d="M160.215 29.2449V57.3469C159.126 37.6681 156.247 30.5916 144.65 29.2449H160.215Z" fill="#FCBC98"/>
<path d="M160.215 29.2449V1.14285C161.305 20.8216 164.183 27.8982 175.781 29.2449H160.215Z" fill="#FCBC98"/>
<path d="M160.215 29.2449V1.14285C159.126 20.8216 156.247 27.8982 144.65 29.2449H160.215Z" fill="#FCBC98"/>
<path d="M20.9 90.764V112.61C21.747 97.312 23.9847 91.8109 33 90.764H20.9Z" fill="#FCBC98"/>
<path d="M20.9 90.764V112.61C20.0531 97.312 17.8153 91.8109 8.80003 90.764H20.9Z" fill="#FCBC98"/>
<path d="M20.9 90.764V68.9184C21.747 84.216 23.9847 89.7171 33 90.764H20.9Z" fill="#FCBC98"/>
<path d="M20.9 90.764V68.9184C20.0531 84.216 17.8153 89.7171 8.80003 90.764H20.9Z" fill="#FCBC98"/>
<path d="M181.207 13.8074V27.0229C181.719 17.7686 183.073 14.4407 188.526 13.8074H181.207Z" fill="#FCBC98"/>
<path d="M181.207 13.8074V27.0229C180.694 17.7686 179.34 14.4407 173.887 13.8074H181.207Z" fill="#FCBC98"/>
<path d="M181.207 13.8074V0.59184C181.719 9.84619 183.073 13.1741 188.526 13.8074H181.207Z" fill="#FCBC98"/>
<path d="M181.207 13.8074V0.59184C180.694 9.84619 179.34 13.1741 173.887 13.8074H181.207Z" fill="#FCBC98"/>
<defs>
<filter id="filter0_d_462_1704" x="0.47583" y="5.10635" width="185.753" height="112.194" filterUnits="userSpaceOnUse" color-interpolation-filters="sRGB">
<feFlood flood-opacity="0" result="BackgroundImageFix"/>
<feColorMatrix in="SourceAlpha" type="matrix" values="0 0 0 0 0 0 0 0 0 0 0 0 0 0 0 0 0 0 127 0" result="hardAlpha"/>
<feOffset/>
<feGaussianBlur stdDeviation="5.5"/>
<feComposite in2="hardAlpha" operator="out"/>
<feColorMatrix type="matrix" values="0 0 0 0 0.988235 0 0 0 0 0.737255 0 0 0 0 0.596078 0 0 0 0.56 0"/>
<feBlend mode="normal" in2="BackgroundImageFix" result="effect1_dropShadow_462_1704"/>
<feBlend mode="normal" in="SourceGraphic" in2="effect1_dropShadow_462_1704" result="shape"/>
</filter>
</defs>
</svg>
